<svg xmlns="http://www.w3.org/2000/svg" xmlns:xlink="http://www.w3.org/1999/xlink" width="500" zoomAndPan="magnify" viewBox="0 0 375 374.999991" height="500" preserveAspectRatio="xMidYMid meet" version="1.0"><defs><clipPath id="b546f3b7ca"><path d="M 37.5 0 L 337.5 0 C 358.210938 0 375 16.789062 375 37.5 L 375 337.5 C 375 358.210938 358.210938 375 337.5 375 L 37.5 375 C 16.789062 375 0 358.210938 0 337.5 L 0 37.5 C 0 16.789062 16.789062 0 37.5 0 Z M 37.5 0 " clip-rule="nonzero"/></clipPath><clipPath id="c94b95a458"><path d="M 0 0 L 375 0 L 375 375 L 0 375 Z M 0 0 " clip-rule="nonzero"/></clipPath><clipPath id="6845ebd660"><path d="M 37.5 0 L 337.5 0 C 358.210938 0 375 16.789062 375 37.5 L 375 337.5 C 375 358.210938 358.210938 375 337.5 375 L 37.5 375 C 16.789062 375 0 358.210938 0 337.5 L 0 37.5 C 0 16.789062 16.789062 0 37.5 0 Z M 37.5 0 " clip-rule="nonzero"/></clipPath><clipPath id="57bdcbca10"><rect x="0" width="375" y="0" height="375"/></clipPath><clipPath id="f776d19374"><path d="M 124 88.488281 L 245 88.488281 L 245 238 L 124 238 Z M 124 88.488281 " clip-rule="nonzero"/></clipPath></defs><g clip-path="url(#b546f3b7ca)"><g transform="matrix(1, 0, 0, 1, 0, 0)"><g clip-path="url(#57bdcbca10)"><g clip-path="url(#c94b95a458)"><g clip-path="url(#6845ebd660)"><rect x="-82.5" width="540" fill="#f5f5f5" height="539.999987" y="-82.499998" fill-opacity="1"/></g></g></g></g></g><path fill="#2b0743" d="M 251.316406 215.722656 C 250.144531 200.152344 242.300781 187.78125 231.730469 176.957031 C 222.65625 167.660156 213.402344 158.535156 203.96875 149.605469 C 199.367188 145.253906 195.398438 140.078125 189.511719 137.199219 C 189.296875 137.125 189.082031 137.046875 188.871094 136.964844 C 188.363281 136.757812 187.859375 136.558594 187.355469 136.347656 C 182.566406 134.691406 178.546875 135.78125 175.03125 139.683594 C 171.667969 143.414062 171 147.792969 173.304688 152.429688 C 176.097656 158.042969 180.835938 161.96875 185.402344 166.035156 C 195.433594 176.042969 205.632812 185.886719 215.449219 196.09375 C 226.515625 207.605469 229.300781 221.1875 223.828125 236.203125 C 219.015625 249.410156 209.324219 257.078125 195.648438 259.882812 C 195.429688 259.929688 195.214844 259.976562 194.996094 260.023438 C 194.226562 260.074219 193.457031 260.125 192.6875 260.171875 C 191.414062 260.15625 190.136719 260.109375 188.863281 260.125 C 177.808594 260.21875 168.472656 256.429688 161.097656 248.023438 C 158.722656 245.316406 156.800781 242.300781 154.773438 239.351562 C 152.3125 235.78125 149.347656 232.804688 144.703125 232.429688 C 135.128906 231.648438 128.542969 241.257812 133.03125 250.332031 C 140.511719 265.453125 152.054688 276.542969 168.179688 282.277344 C 176.089844 285.089844 184.25 286.445312 192.648438 284.574219 C 195.550781 284.742188 198.328125 284.023438 201.125 283.445312 C 201.410156 283.339844 201.6875 283.230469 201.96875 283.125 C 203.003906 282.882812 204.035156 282.644531 205.070312 282.398438 L 205.371094 282.492188 C 205.371094 282.492188 205.574219 282.246094 205.574219 282.246094 C 207.011719 282.5 207.792969 281.082031 208.984375 280.863281 C 220.332031 278.75 228.847656 271.671875 236.125 263.640625 C 248.300781 250.191406 252.671875 233.6875 251.316406 215.722656 Z M 187.371094 164.917969 C 187.578125 164.6875 187.730469 164.433594 187.84375 164.164062 C 187.730469 164.433594 187.578125 164.6875 187.371094 164.917969 Z M 187.371094 164.917969 " fill-opacity="1" fill-rule="nonzero"/><g clip-path="url(#f776d19374)"><path fill="#2b0743" d="M 149.25 202.402344 C 157.828125 211.140625 166.242188 220.070312 175.707031 227.890625 C 177.910156 230.007812 179.984375 232.289062 182.351562 234.203125 C 188.121094 238.875 196.949219 238.988281 201.039062 234.613281 C 205.246094 230.117188 204.535156 222.378906 198.894531 216.65625 C 192.082031 209.75 185.542969 202.550781 178.164062 196.226562 C 173.179688 190.089844 166.832031 185.304688 161.496094 179.5 C 158.375 176.105469 154.871094 172.746094 153.039062 168.71875 C 146.421875 154.167969 148.046875 140.210938 157.929688 127.484375 C 159.523438 125.429688 161.035156 123.3125 163.285156 121.683594 C 169.367188 117.273438 176.171875 115.082031 183.460938 114.003906 C 194.371094 113.46875 204.1875 116.058594 212.378906 123.726562 C 216.609375 127.691406 219.285156 132.832031 223.066406 137.148438 C 226.640625 141.230469 231.191406 143.128906 235.867188 141.496094 C 241.128906 139.664062 244.292969 135.207031 244.152344 129.890625 C 244.058594 126.328125 242.839844 123.109375 241.050781 120.128906 C 237.484375 114.199219 233.074219 109.082031 227.820312 104.4375 C 218.082031 95.816406 206.960938 90.945312 194.15625 89.589844 C 193.632812 89.527344 193.109375 89.464844 192.59375 89.394531 C 190.085938 88.578125 187.519531 88.96875 184.976562 89.042969 C 184.210938 89.003906 183.449219 88.90625 182.695312 88.949219 C 156.808594 90.308594 133.175781 109.605469 126.925781 134.714844 C 122.257812 153.46875 124.378906 171.152344 135.652344 187.359375 C 139.558594 192.980469 144.527344 197.582031 149.25 202.402344 Z M 149.25 202.402344 " fill-opacity="1" fill-rule="nonzero"/></g></svg>